<svg version="1.2" xmlns="http://www.w3.org/2000/svg" viewBox="0 0 96 95" width="96" height="95">
	<title>1099d6df-svg</title>
	<style>
		.s0 { fill: #ffe600 } 
		.s1 { fill: #f50000 } 
	</style>
	<path class="s0" d="m0.9 0h95v95h-95z"/>
	<path fill-rule="evenodd" class="s1" d="m12.7 50.8zm0 0l-0.4 9.3-7.6 1.4 2-26.6c0 0 10.6-8.3 16.2-7.6 0 0 5.7 0 5.8 5.1 0.2 5.1-4 9.1-6.3 11.6l-2.3 2.4 9.5 5 2.8-20.3c0.3-1.9 1.4-2 1.4-2q5.1-0.9 7.1-1.2c1.9-0.3 1.4 2.3 1.4 2.3q-3.4 25.7-3.7 27.4c-0.4 2.3-1.9 2.3-1.9 2.3 0 0-4.3 0.2-6.4 0.2-2.1 0.1-1.6-2.1-1.6-2.1l0.7-5-6.4 6.8zm0.8-12.4l-0.3 5.7c0 0 5.2-2.7 5.6-6.3 0 0 0.2-2.8-5.3 0.6zm79.1-12.6l0.4 0.7-2.2 6.2-1.1 0.7-10.8 1.6-0.8 3.6c0 0 7.9-1 9.2-1.1 1.2-0.1 0.8 1.1 0.8 1.1l-3 6.5-8.9 1.3-1.1 3.7 14.8-0.8 0.3 1.1-4.8 9-23 0.5 0.1-0.7v-0.1l-3.5 1.6-10.3-11.4-1.2 10-7.5 0.3 4.3-22.3 0.9-5.7c5-2.1 5-2.1 11-4.4 0 0 4.3-1.9 8.8 0.5 3.9 2.1 2.6 7.4 0.4 11.2-2.2 3.9-8.5 7.6-8.5 7.6 0.4-0.1 4.2 3.4 7.3 6.3l6-22.8c0.3-1.1 1.1-1.1 1.1-1.1l21.3-3.1zm-35.7 12.7c0.8-2.5-0.3-2.6-1.2-2.6-0.8 0-3.9 1.2-4.3 1.4l-1 6.1c0 0 5.7-2.5 6.5-4.9zm-43.3 34q0 0 0 0 0 0 0 0zm0 0q0.7 0.7 1.3 1.4l0.9 0.9h-3.7l-0.5-0.6q-1.4 0.8-2.7 0.8c-2 0-3.2-1.1-3.2-2.9 0-1.3 0.7-2.4 2-3.2-0.2-0.5-0.4-1.1-0.2-2 0.4-1.6 2.2-2.7 3.6-2.7 0.9 0 1.7 0.3 2.1 0.9 0.3 0.3 0.7 1 0.5 2-0.1 0.7-0.4 1.2-0.8 1.6h2.3l-0.1 0.6c-0.2 1.1-0.7 2.2-1.5 3.2zm-3 0q-1-1.2-1.6-2.2c-0.6 0.2-0.9 0.7-0.9 1.3 0 0.8 0.5 1.3 1.3 1.3 0.5 0 0.9-0.2 1.2-0.4zm0.9-5.6c0-0.2 0-0.5-0.2-0.6q-0.2-0.2-0.4-0.2c-0.5 0-1 0.4-1.1 0.9-0.1 0.6 0.1 1 0.3 1.3 0.8-0.4 1.3-0.7 1.4-1.4zm0.9 2.3v-0.1c-0.3 0.2-0.6 0.4-1 0.6q0.3 0.3 0.6 0.8 0.3-0.6 0.4-1.3zm75.6-4.9c0.9 0 1.4 0.2 2.2 0.5l0.5 0.3-0.9 2.5-0.5-0.3c-0.4-0.2-1-0.4-1.6-0.4-1 0-1 0.3-1 0.5 0 0.2 0.3 0.4 0.7 0.7l0.2 0.1c1.2 0.8 2.2 1.6 2.2 3.1 0 2.3-1.6 3.7-4.3 3.7-0.7 0-1.8-0.1-2.8-0.6l-0.5-0.3 1.2-2.6 0.5 0.4c0.3 0.2 1.1 0.5 1.8 0.5 0.3 0 1.2 0 1.2-0.6 0-0.3-0.2-0.5-0.8-0.8l-0.2-0.1c-1.4-0.9-2.1-1.9-2.1-3.1 0-2.6 2.1-3.5 4-3.5h0.2zm-31.6 0.2l-2.2 10.3h-2.5l-2.4-4.9-1.1 4.9h-2.9l2.2-10.3h2.5l2.4 5.1 1.1-5.1zm16.6 3.8c0 3.3-2.2 6.7-5.9 6.7-2.5 0-4-1.5-4-4 0-3.3 2.2-6.7 5.9-6.7 2.5 0 4 1.5 4 4zm-2.8 0.1q0-1.8-1.5-1.8c-1.9 0-2.8 2.5-2.8 4.2q0 1.8 1.5 1.8c1.9 0 2.8-2.4 2.8-4.2zm-9.8-1.5c-1 0-1 0.3-1 0.5 0 0.2 0.2 0.4 0.7 0.7l0.2 0.1c1.2 0.8 2.2 1.6 2.2 3.1 0 2.3-1.6 3.7-4.3 3.7-0.7 0-1.8-0.1-2.8-0.7l-0.5-0.2 1.2-2.6 0.5 0.4c0.3 0.2 1.1 0.5 1.8 0.5 0.3 0 1.2 0 1.2-0.6 0-0.3-0.2-0.5-0.8-0.8l-0.2-0.1c-1.4-0.9-2.1-1.9-2.1-3.1 0-2.6 2.1-3.5 4-3.5h0.2q1.3 0.1 2.5 0.5l0.5 0.3-1.2 2.6-0.5-0.3c-0.4-0.3-1-0.5-1.6-0.5zm-37.1 0.2c-2 0-2.8 1.8-2.8 3.5 0 1.1 0.5 1.7 1.6 1.7 0.6 0 1.2-0.1 1.6-0.4l0.7-0.3 0.5 2.6-0.4 0.2c-0.4 0.2-1.5 0.6-3 0.6-2.5 0-4.2-1.7-4.2-4.3 0-3.5 2.7-6.3 6.1-6.3 0.7 0 1.8 0.1 2.8 0.5l0.5 0.3-1.4 2.6-0.5-0.3c-0.3-0.3-1-0.4-1.5-0.4zm20.1-2.4l1.4 10.1h-3.1l-0.2-1.8h-2.7l-0.9 1.8h-3.2l5.8-10.3h2.9c0 0 0 0.2 0 0.2zm-1.9 6l-0.3-2.8-1.8 2.8zm-5.2-6.2l-2.2 10.3h-3l0.9-4.1h-2.8l-0.9 4.1h-3l2.2-10.3h3l-0.8 3.6h2.8l0.8-3.6zm47.1 0l-2.2 10.3h-2.5l-2.4-4.9-1.1 4.9h-2.9l2.2-10.3h2.4l2.5 5.1 1.1-5.1zm-51.2-44c0-2.9 2.3-5.3 5.3-5.3 2.9 0 5.3 2.4 5.3 5.3 0 2.9-2.4 5.3-5.3 5.3-3 0-5.3-2.4-5.3-5.3z"/>
</svg>